<svg width="1113" height="313" xmlns="http://www.w3.org/2000/svg">
 <!-- Created with Method Draw - http://github.com/duopixel/Method-Draw/ -->

 <g>
  <title>background</title>
  <rect fill="#fff" id="canvas_background" height="315" width="1115" y="-1" x="-1"/>
 </g>
 <g>
  <title>Layer 1</title>
  <rect id="svg_10" height="43" width="211" y="1.166291" x="0.919917" stroke-width="1.5" stroke="#000" fill="#fff"/>
  <text font-style="italic" xml:space="preserve" text-anchor="start" font-family="Helvetica, Arial, sans-serif" font-size="24" id="svg_2" y="31.000001" x="60.91619" stroke-width="0" stroke="#000" fill="#000000" font-weight="bold">Product</text>
  <text fill="#000000" stroke="#000" stroke-width="0" stroke-opacity="null" fill-opacity="null" x="630.981024" y="148.9785" id="svg_15" font-size="24" font-family="Helvetica, Arial, sans-serif" text-anchor="start" xml:space="preserve">$product = FactoryMethod();</text>
  <text fill="#000000" stroke="#000" stroke-width="0" stroke-opacity="null" fill-opacity="null" x="706.360359" y="72.59948" id="svg_16" font-size="24" font-family="Helvetica, Arial, sans-serif" text-anchor="start" xml:space="preserve">return new ConcreteProduct();</text>
  <text fill="#000000" stroke="#000" stroke-width="0" stroke-opacity="null" fill-opacity="null" x="706" y="290.254997" id="svg_17" font-size="24" font-family="Helvetica, Arial, sans-serif" text-anchor="start" xml:space="preserve">return new AnotherConcreteProduct();</text>
  <rect id="svg_20" height="43.319151" width="289" y="0.685517" x="349.638193" stroke-width="1.5" stroke="#000" fill="#fff"/>
  <text style="cursor: move;" xml:space="preserve" text-anchor="start" font-family="Helvetica, Arial, sans-serif" font-size="24" id="svg_21" y="30.331626" x="357.553122" stroke-width="0" stroke="#000" fill="#000000" font-weight="bold">Creator</text>
  <rect fill="#fff" stroke="#000" stroke-width="1.5" stroke-opacity="null" fill-opacity="null" x="349.832338" y="44.248679" width="289" height="82.382979" id="svg_22"/>
  <text fill="#000000" stroke="#000" stroke-width="0" stroke-opacity="null" fill-opacity="null" x="357.653262" y="74.00819" id="svg_23" font-size="24" font-family="Helvetica, Arial, sans-serif" text-anchor="start" xml:space="preserve">FactoryMethod(): Product</text>
  <text fill="#000000" stroke="#000" stroke-width="0" stroke-opacity="null" fill-opacity="null" x="358.328568" y="112.657627" id="svg_24" font-size="24" font-family="Helvetica, Arial, sans-serif" text-anchor="start" xml:space="preserve">AnOperation(): void</text>
  <rect id="svg_25" height="43.319151" width="289" y="218.991695" x="349.873064" stroke-width="1.5" stroke="#000" fill="#fff"/>
  <text xml:space="preserve" text-anchor="start" font-family="Helvetica, Arial, sans-serif" font-size="24" id="svg_26" y="248.637805" x="357.787993" stroke-width="0" stroke="#000" fill="#000000" font-weight="bold">ConcreteCreator</text>
  <rect fill="#fff" stroke="#000" stroke-width="1.5" stroke-opacity="null" fill-opacity="null" x="349.673509" y="262.554857" width="289" height="43" id="svg_27"/>
  <text fill="#000000" stroke="#000" stroke-width="0" stroke-opacity="null" fill-opacity="null" x="357.888133" y="292.314368" id="svg_28" font-size="24" font-family="Helvetica, Arial, sans-serif" text-anchor="start" xml:space="preserve">FactoryMethod(): Product</text>
  <path fill="none" stroke="#000" stroke-width="1.5" stroke-opacity="null" fill-opacity="null" d="m516.516846,182.166016c1.799194,-1.742294 3.519897,-3.752426 5.037354,-5.560196l-45.408875,-0.823502l-6.227783,7.12706l-19.733185,-0.613007c2.473633,-3.241119 5.182648,-7.058029 7.191498,-9.920654l-7.14621,-9.628723l21.053802,0l4.283295,6.017288l46.357574,0l-5.748291,-6.003647c1.775391,-1.889816 4.401123,-4.413864 5.824829,-5.738419l15.594849,15.298767l-15.630127,15.534821l-5.44873,-5.689789l0,0z" id="svg_37" transform="rotate(-90, 493.889, 172.439)"/>
  <rect id="svg_38" height="43" width="211" y="218.944079" x="0.919917" stroke-width="1.5" stroke="#000" fill="#fff"/>
  <text xml:space="preserve" text-anchor="start" font-family="Helvetica, Arial, sans-serif" font-size="24" id="svg_39" y="248.590188" x="8.834846" stroke-width="0" stroke="#000" fill="#000000" font-weight="bold">ConcreteProduct</text>
  <path fill="#fff" stroke="#000" stroke-width="1.5" stroke-opacity="null" fill-opacity="null" d="m288.389252,236.584106c5.632843,0 11.265594,0 16.896606,0c0,1.978317 0,3.957397 0,5.935547c-5.631012,0 -11.263763,0 -16.896606,0c0,-1.978149 0,-3.95723 0,-5.935547zm-24.408844,0c6.258698,0 12.516998,0 18.776215,0c0,1.978317 0,3.957397 0,5.935547c-6.259216,0 -12.517517,0 -18.776215,0c0,-1.978149 0,-3.95723 0,-5.935547zm-22.532166,0c6.259125,0 12.517731,0 18.778015,0c0,1.978317 0,3.957397 0,5.935547c-6.260284,0 -12.51889,0 -18.778015,0c0,-1.978149 0,-3.95723 0,-5.935547zm-22.530441,0c6.258286,0 12.517303,0 18.775192,0c0,1.978317 0,3.957397 0,5.935547c-6.257889,0 -12.516907,0 -18.775192,0c0,-1.978149 0,-3.95723 0,-5.935547zm69.471451,12.240875c5.94519,-0.133423 11.891815,0.09552 17.837616,-0.039551c0.379822,-2.08902 0.205536,-4.175964 0.585602,-6.265778c5.565063,0 11.684601,0 17.248718,0c0,-1.978149 0,-3.95723 0,-5.935547c-5.632172,0 -11.264313,0 -16.894684,0c0,-2.199463 0,-4.398026 0,-6.597153c-6.259888,0 -12.519562,0 -18.777252,0c0,-1.979523 0,-3.956757 0,-5.936234c6.25769,0 12.517365,0 18.777252,0c0,1.979477 0,3.956711 0,5.936234c5.563232,0 11.685852,-0.097794 17.248108,-0.097794c0.380341,2.088791 0.202209,4.276001 0.58548,6.363968c5.944397,0.133774 11.974915,-0.011353 17.919617,0.123337c0,1.954178 -0.083099,4.18869 -0.083099,6.143188c-6.259918,0 -12.516754,0 -18.775421,0c0,2.197662 0,4.39624 0,6.595795c-5.632172,0 -11.264313,0 -16.894684,0c0,1.978973 0,3.95816 0,5.937103c-6.259888,0 -12.519562,0 -18.777252,0c0,-1.955231 0,-4.27301 0,-6.22757l0,0z" id="svg_40" transform="rotate(180, 280.918, 239.551)"/>
  <path fill="none" stroke="#000" stroke-width="1.5" stroke-opacity="null" fill-opacity="null" d="m150.927933,151.557663c3.51918,-3.410614 6.883438,-7.341446 9.85022,-10.87088l-88.828476,-1.619858l-12.184868,13.946243l-38.60187,-1.197113c4.837011,-6.350739 10.136532,-13.810226 14.063272,-19.411346l-13.974802,-18.836807l41.18714,0l8.3811,11.768982l90.690544,0l-11.249359,-11.742996c3.471786,-3.700058 8.610413,-8.637856 11.399017,-11.226906l30.501984,29.926384l-30.572815,30.391388l-10.661087,-11.12709l0,0z" id="svg_44" transform="rotate(-90, 106.662, 132.525)"/>
  <path id="svg_6" d="m671.289124,45.881126c-2.725769,-2.980774 2.779846,-8.024094 5.258301,-4.588722c2.113342,2.97802 -2.586487,6.76387 -5.258301,4.588722zm7.309509,6.782967c-2.228394,-3.281288 3.870911,-6.787567 5.802917,-3.509361c2.289673,3.427757 -3.902283,7.341911 -5.802917,3.509361zm8.320251,8.207207c-2.78772,-1.88607 -0.019287,-6.236908 2.868347,-5.848541c4.005859,0.611374 2.934082,7.289612 -0.975647,6.962173c-0.755737,-0.087791 -1.434143,-0.518829 -1.8927,-1.113632zm6.959229,7.246254c-2.332642,-2.962387 3.041565,-6.853325 5.300598,-4.032333c2.456238,3.137909 -3.026489,7.279663 -5.300598,4.032333zm-13.513489,0.162643c-2.591248,-2.451828 1.210327,-6.41391 4.071411,-5.379616c4.156189,1.330307 1.067627,7.726791 -2.641296,6.273666c-0.512634,-0.241653 -0.96759,-0.574295 -1.430115,-0.894051zm-11.018555,0c-3.045959,-2.843346 2.517212,-7.514252 5.123413,-4.539803c2.645203,3.100502 -2.316956,7.499008 -5.123413,4.539803zm-10.88031,-0.162643c-2.332153,-2.961594 3.042114,-6.854561 5.297424,-4.031158c2.447998,3.142868 -3.018677,7.27726 -5.297424,4.031158zm-10.36731,0.162643c-3.042053,-2.843346 2.518005,-7.514252 5.124084,-4.539803c2.641296,3.100502 -2.317139,7.499008 -5.124084,4.539803zm-10.883606,-0.160263c-2.672424,-3.495392 4.552917,-7.310272 5.759644,-2.924957c0.890625,2.934639 -3.932495,5.49015 -5.759644,2.924957zm49.264038,7.770378c-2.598145,-2.693687 2.020813,-7.398972 4.788574,-4.947327c3.424011,2.442093 -1.110291,8.100883 -4.252258,5.489456c-0.177612,-0.183273 -0.358643,-0.362015 -0.536316,-0.54213zm-7.880249,6.678795c-2.185852,-3.121338 3.50061,-6.547073 5.551941,-3.620003c2.68335,3.109306 -2.703003,7.345863 -5.177856,4.239555l-0.374084,-0.619553zm-7.047363,8.306503c-2.363525,-2.162537 0.88269,-5.569244 3.458191,-4.989578c3.917053,1.01033 1.449402,7.292923 -2.147278,6.100571c-0.55481,-0.191208 -1.006836,-0.616058 -1.310913,-1.110992z" stroke-width="1.5" stroke="#000" fill="#fff"/>
  <path transform="rotate(29, 599.213, 123.137)" id="svg_8" d="m602.289124,102.881126c-2.725769,-2.980774 2.779846,-8.024094 5.258301,-4.588722c2.113342,2.97802 -2.586487,6.76387 -5.258301,4.588722zm7.309509,6.782967c-2.228394,-3.281288 3.870911,-6.787567 5.802917,-3.509361c2.289673,3.427757 -3.902283,7.341911 -5.802917,3.509361zm8.320251,8.207207c-2.78772,-1.88607 -0.019287,-6.236908 2.868347,-5.848541c4.005859,0.611374 2.934082,7.289612 -0.975647,6.962173c-0.755737,-0.087791 -1.434143,-0.518829 -1.8927,-1.113632zm6.959229,7.246254c-2.332642,-2.962387 3.041565,-6.853325 5.300598,-4.032333c2.456238,3.137909 -3.026489,7.279663 -5.300598,4.032333zm-13.513489,0.162643c-2.591248,-2.451828 1.210327,-6.41391 4.071411,-5.379616c4.156189,1.330307 1.067627,7.726791 -2.641296,6.273666c-0.512634,-0.241653 -0.96759,-0.574295 -1.430115,-0.894051zm-11.018555,0c-3.045959,-2.843346 2.517212,-7.514252 5.123413,-4.539803c2.645203,3.100502 -2.316956,7.499016 -5.123413,4.539803zm-10.88031,-0.162643c-2.332153,-2.961594 3.042114,-6.854561 5.297424,-4.031158c2.447998,3.142868 -3.018677,7.277252 -5.297424,4.031158zm-10.36731,0.162643c-3.042053,-2.843346 2.518005,-7.514252 5.124084,-4.539803c2.641296,3.100502 -2.317139,7.499016 -5.124084,4.539803zm-10.883606,-0.160263c-2.672424,-3.495392 4.552917,-7.310272 5.759644,-2.924957c0.890625,2.934639 -3.932495,5.49015 -5.759644,2.924957zm49.264038,7.770386c-2.598145,-2.693695 2.020813,-7.398979 4.788574,-4.947334c3.424011,2.442085 -1.110291,8.100883 -4.252258,5.489449c-0.177612,-0.183258 -0.358643,-0.362 -0.536316,-0.542114zm-7.880249,6.678787c-2.185852,-3.121338 3.50061,-6.547073 5.551941,-3.62001c2.68335,3.109314 -2.703003,7.345871 -5.177856,4.239563l-0.374084,-0.619553zm-7.047363,8.306503c-2.363525,-2.162537 0.88269,-5.569244 3.458191,-4.989578c3.917053,1.01033 1.449402,7.292923 -2.147278,6.100571c-0.55481,-0.191208 -1.006836,-0.616058 -1.310913,-1.110992z" stroke-width="1.5" stroke="#000" fill="#fff"/>
  <path id="svg_9" d="m671.414124,263.881134c-2.725769,-2.980774 2.779846,-8.024109 5.258301,-4.588715c2.113342,2.977997 -2.586487,6.763855 -5.258301,4.588715zm7.309509,6.782959c-2.228394,-3.281281 3.870911,-6.787567 5.802917,-3.509369c2.289673,3.427765 -3.902283,7.341919 -5.802917,3.509369zm8.320251,8.207214c-2.78772,-1.886078 -0.019287,-6.236908 2.868347,-5.848541c4.005859,0.611359 2.934082,7.289612 -0.975647,6.962158c-0.755737,-0.087769 -1.434143,-0.518829 -1.8927,-1.113617zm6.959229,7.246246c-2.332642,-2.962402 3.041565,-6.853333 5.300598,-4.032349c2.456238,3.137939 -3.026489,7.279663 -5.300598,4.032349zm-13.513489,0.162659c-2.591248,-2.451843 1.210327,-6.41394 4.071411,-5.379639c4.156189,1.330322 1.067627,7.726807 -2.641296,6.273682c-0.512634,-0.241669 -0.96759,-0.57431 -1.430115,-0.894043zm-11.018555,0c-3.045959,-2.843353 2.517212,-7.514282 5.123413,-4.539825c2.645203,3.100494 -2.316956,7.499023 -5.123413,4.539825zm-10.88031,-0.162659c-2.332153,-2.961609 3.042114,-6.854553 5.297424,-4.031158c2.447998,3.142853 -3.018677,7.277252 -5.297424,4.031158zm-10.36731,0.162659c-3.042053,-2.843353 2.518005,-7.514282 5.124084,-4.539825c2.641296,3.100494 -2.317139,7.499023 -5.124084,4.539825zm-10.883606,-0.160278c-2.672424,-3.495392 4.552917,-7.310272 5.759644,-2.924957c0.890625,2.934631 -3.932495,5.490143 -5.759644,2.924957zm49.264038,7.770386c-2.598145,-2.693695 2.020813,-7.398987 4.788574,-4.947327c3.424011,2.442078 -1.110291,8.100891 -4.252258,5.489441c-0.177612,-0.183258 -0.358643,-0.362 -0.536316,-0.542114zm-7.880249,6.678772c-2.185852,-3.121338 3.50061,-6.547058 5.551941,-3.619995c2.68335,3.109314 -2.703003,7.345886 -5.177856,4.239563l-0.374084,-0.619568zm-7.047363,8.306519c-2.363525,-2.162537 0.88269,-5.569244 3.458191,-4.989563c3.917053,1.010315 1.449402,7.292908 -2.147278,6.100555c-0.55481,-0.191193 -1.006836,-0.616058 -1.310913,-1.110992z" stroke-width="1.5" stroke="#000" fill="#fff"/>
  <path fill="#fff" stroke="#000" stroke-width="1.5" stroke-opacity="null" fill-opacity="null" d="m288.389252,17.69471c5.632843,0 11.265594,0 16.896606,0c0,1.97831 0,3.957386 0,5.935528c-5.631012,0 -11.263763,0 -16.896606,0c0,-1.978142 0,-3.957218 0,-5.935528zm-24.408844,0c6.258698,0 12.516998,0 18.776215,0c0,1.97831 0,3.957386 0,5.935528c-6.259216,0 -12.517517,0 -18.776215,0c0,-1.978142 0,-3.957218 0,-5.935528zm-22.532166,0c6.259125,0 12.517731,0 18.778015,0c0,1.97831 0,3.957386 0,5.935528c-6.260284,0 -12.51889,0 -18.778015,0c0,-1.978142 0,-3.957218 0,-5.935528zm-22.530441,0c6.258286,0 12.517303,0 18.775192,0c0,1.97831 0,3.957386 0,5.935528c-6.257889,0 -12.516907,0 -18.775192,0c0,-1.978142 0,-3.957218 0,-5.935528zm69.471451,12.240833c5.94519,-0.133423 11.891815,0.09552 17.837616,-0.039551c0.379822,-2.089012 0.205536,-4.175949 0.585602,-6.265755c5.565063,0 11.684601,0 17.248718,0c0,-1.978142 0,-3.957218 0,-5.935528c-5.632172,0 -11.264313,0 -16.894684,0c0,-2.199455 0,-4.39801 0,-6.59713c-6.259888,0 -12.519562,0 -18.777252,0c0,-1.979515 0,-3.956742 0,-5.936216c6.25769,0 12.517365,0 18.777252,0c0,1.979474 0,3.956701 0,5.936216c5.563232,0 11.685852,-0.097794 17.248108,-0.097794c0.380341,2.088783 0.202209,4.275986 0.58548,6.363945c5.944397,0.133774 11.974915,-0.011353 17.919617,0.123337c0,1.954174 -0.083099,4.188679 -0.083099,6.143169c-6.259918,0 -12.516754,0 -18.775421,0c0,2.197655 0,4.396225 0,6.595772c-5.632172,0 -11.264313,0 -16.894684,0c0,1.978966 0,3.958145 0,5.937084c-6.259888,0 -12.519562,0 -18.777252,0c0,-1.955227 0,-4.272999 0,-6.227551l0,0z" id="svg_11" transform="rotate(180, 280.918, 20.6616)"/>
 </g>
</svg>